<svg xmlns="http://www.w3.org/2000/svg" viewBox="0 0 545.59 585.03"><defs><style>.cls-1{fill:#7bc35d;}.cls-2{fill:#c6e5b9;}.cls-3{fill:#bde1ae;}.cls-4{fill:#e0f0d9;}.cls-5{fill:#4cbe89;}.cls-6{fill:#346691;}.cls-7{fill:#389087;}.cls-8{fill:#364595;}.cls-9{fill:#255a89;}.cls-10{fill:#fefefe;}</style></defs><title>Asset 1</title><g id="Layer_2" data-name="Layer 2"><g id="Layer_1-2" data-name="Layer 1"><path class="cls-1" d="M545.15,213.17c-2.3,41-15.68,78-41.11,110.25-28.14,35.73-64.59,58.79-108.81,69.47a193,193,0,0,1-51.85,5c-2.47-.08-4.94-.35-7.42-.44-1.93-.07-2.3-.59-1.25-2.39q13.75-23.37,29.54-45.41a706,706,0,0,1,60.13-72.79A717.15,717.15,0,0,1,540.25,177c.46-.32,1-.59,1.38-1,1.41-1.19,1.87-.49,2,1q.76,8.23,1.54,16.46a10.56,10.56,0,0,1,.17,2.93c.15,2.23-.31,4.47.25,6.69v.48c-.54,2.34-.1,4.71-.25,7.05A7.12,7.12,0,0,1,545.15,213.17Z"/><path class="cls-2" d="M545.15,213.17c.12-3.21-.51-6.45.44-9.63v9.6A2.33,2.33,0,0,0,545.15,213.17Z"/><path class="cls-3" d="M545.59,203.06c-1-2.2-.29-4.5-.42-6.75.15-.19.29-.17.42,0Z"/><path class="cls-4" d="M545.59,196.34l-.42,0q0-1.43,0-2.87l.42,0Z"/><path class="cls-5" d="M309.29,394.8c-1.7-8.2-3-16-4.07-23.77q-3.33-23.38-4.38-47c-.44-10-.7-20-.44-30a506.72,506.72,0,0,1,5.52-63.93,477.44,477.44,0,0,1,30.9-110.44A488.65,488.65,0,0,1,388.5,25.83c1.08-1.54,1.87-1.78,3.6-.94a195.85,195.85,0,0,1,79.61,69.8,4.41,4.41,0,0,1,.3,5q-30.64,65.15-62.17,129.87c-14.38,29.34-28.64,58.74-45.65,86.7a758.91,758.91,0,0,1-53,76.37C310.67,393.2,310.14,393.79,309.29,394.8Z"/><path class="cls-6" d="M225.75,393.7a296.46,296.46,0,0,1-26.85-18c-55.78-42-95-95.92-117.08-162.24A325,325,0,0,1,66,132.13c-.56-8.38-.84-16.76-.8-25.16A6.11,6.11,0,0,1,66,103.8q29.69-51.51,82.81-78.2c1.39-.7,2-.9,2.08,1.11.55,14.14,1.64,28.24,3.07,42.31,1.54,15.18,3.63,30.3,5.93,45.38,6.56,43.05,18.72,84.76,30.23,126.63,13.5,49.12,25.14,98.7,35.38,148.61C225.72,390.88,226.23,392.09,225.75,393.7Z"/><path class="cls-7" d="M276.23,388.61a310.43,310.43,0,0,1-63.61-131.45,304.3,304.3,0,0,1-6-44.37c-1-15.4-1.56-30.81-1.27-46.24a491.9,491.9,0,0,1,4.06-54.47,513.65,513.65,0,0,1,22.68-97.35,17.76,17.76,0,0,0,1-2.95c.69-4.68,3.5-6.39,8-7.33a200.39,200.39,0,0,1,71.72-2.21c1.93.3,2.11,1,1.75,2.64C308.21,34.22,302.79,63.75,298,93.39q-6,37.39-10.3,75-4.66,40.25-7.45,80.67c-1.15,16.58-2,33.18-2.66,49.79-1,24.85-1.41,49.7-1.4,74.57C276.23,378.29,276.23,383.15,276.23,388.61Z"/><path class="cls-8" d="M209.54,407.29C76.79,417.06-21.88,296.2,4.2,175.6,55.49,267.91,122.24,346.55,209.54,407.29Z"/><path class="cls-9" d="M190.32,581.3H175.45c-7.12,0-14.24-.06-21.35,0a2.65,2.65,0,0,1-3-2c-3.79-9.48-7.74-18.9-11.52-28.38-.68-1.7-1.4-2.42-3.4-2.41q-27.71.15-55.42,0a2.78,2.78,0,0,0-3.1,2.12c-3.69,9.61-7.54,19.15-11.24,28.76a2.49,2.49,0,0,1-2.81,1.84c-11-.07-22.07,0-33.11,0-2.66,0-2.67,0-1.6-2.47L91.17,434.7c1-2.34,2.09-4.66,3-7a1.93,1.93,0,0,1,2.12-1.43c8.48,0,17,.08,25.43,0,1.7,0,1.93,1.06,2.39,2.12q14.42,33.14,28.82,66.29,18.13,41.7,36.26,83.4A7.81,7.81,0,0,1,190.32,581.3Z"/><path class="cls-9" d="M354,557q-12.94-9.52-25.74-19.23c-1.24-.94-1.7-.73-2.54.45a35.34,35.34,0,0,1-12.53,10.92c-17,8.89-38.89,3.85-51-11.82-9.15-11.8-12.14-25.34-10.65-39.94,1.28-12.57,6.17-23.54,15.58-32.27,16.16-15,44.45-14.54,57.23.71,1.08,1.29,1.72.52,2.51-.13,7.85-6.43,15.67-12.91,23.58-19.27,1.29-1,.93-1.57.09-2.56a56.31,56.31,0,0,0-24-16.59c-16.48-6.18-33.36-6.31-50.24-2.34-24.53,5.77-42.93,19.55-53.47,42.85-7.44,16.45-8.77,33.77-6,51.38,3.84,24.32,16.1,43.18,37.83,55.25l.16.09a65.07,65.07,0,0,0,9.89,4.81,58.17,58.17,0,0,0,7.35,2.47c13.77,3.9,27.78,4.12,41.82,1.62a23.8,23.8,0,0,0,3.06-.42c15.17-3.21,27.9-10.75,37.35-23.35C355,558.55,355.26,557.94,354,557Z"/><path class="cls-9" d="M456,519.15c0,19.84,0,39.67.06,59.51,0,2.26-.67,2.72-2.79,2.7q-14.52-.17-29,0c-2,0-2.51-.48-2.5-2.49.06-39.83,0-79.67.12-119.5,0-2.53-.73-2.94-3-2.92-13,.11-26.08,0-39.11.1-1.85,0-2.22-.52-2.2-2.27q.14-12.84,0-25.67c0-1.8.35-2.4,2.31-2.39q59.15.1,118.3,0c1.75,0,2.3.37,2.28,2.22q-.16,13,0,25.91c0,1.91-.62,2.19-2.32,2.18-13.2-.07-26.4,0-39.59-.08-1.94,0-2.54.41-2.53,2.46C456.08,479,456,499.07,456,519.15Z"/><path class="cls-10" d="M127,519.79H89.33L108,471.94Z"/><path class="cls-9" d="M277.43,425.27"/><line class="cls-9" x1="336.57" y1="473.53" x2="332.73" y2="473.53"/></g></g></svg>