<svg xmlns="http://www.w3.org/2000/svg" viewBox="0 0 598.63 583.39"><defs><style>.cls-1{fill:#4cbe89;}.cls-2{fill:#346691;}.cls-3{fill:#7ac35d;}.cls-4{fill:#389087;}.cls-5{fill:#364595;}.cls-6{fill:#255a89;}.cls-7{fill:#3db580;}.cls-8{fill:#28857f;}.cls-9{fill:#25598a;}.cls-10{fill:#70bf55;}.cls-11{fill:#cbe9cb;}.cls-12{fill:#fefefe;}</style></defs><title>Asset 1talk</title><g id="Layer_2" data-name="Layer 2"><g id="Layer_1-2" data-name="Layer 1"><path class="cls-1" d="M309.63,137.85A735.64,735.64,0,0,1,356.46,8.29c1-2.14,1.85-2.8,4.39-2.11a208.69,208.69,0,0,1,93.29,53.6c1.87,1.85,4.48,3.58,5.15,5.84s-1.44,4.72-2.35,7.09A787.3,787.3,0,0,0,422,191.1c-3.51,16.4-6.45,32.9-9,49.47-.1.63-.11,1.27-.17,1.91-.46,1,.47,1.93.07,2.91-.15.75-.38,1.47-.61,2.2-8.68,22.6-16.5,45.5-23.09,68.8a656.52,656.52,0,0,0-18.44,85.43,4.75,4.75,0,0,1-1.06,2.87l-1.88.66c-2.3-1-3.45-3.27-5.08-5-2.59-2.71-4.82-5.78-7.46-8.44-4.35-4.37-6.3-9.93-8.31-15.5a589.31,589.31,0,0,1-21.74-75.83c-3.93-18.14-7.31-36.38-9.77-54.78-1.68-12.51-3.11-25.06-4.13-37.65-.78-9.63-1.4-19.27-1.94-28.92q-1.08-19.41-.84-38.82A3.15,3.15,0,0,1,309.63,137.85Z"/><path class="cls-2" d="M158,243.47c-.49-3.5-2-6.71-3.06-10a639.9,639.9,0,0,1-22.69-92c-1.78-10.56-3.13-21.17-4.42-31.8a9.33,9.33,0,0,1,1.46-6.09,208.18,208.18,0,0,1,85.6-81.89c3.39-1.77,3.36-1.74,3.41,2a471.41,471.41,0,0,0,4.36,56.84c.8,5.85,1.7,11.69,2.58,17.54.11.72-.19,1.69.93,2,1,1.16.38,2.43.25,3.67-.54,13.89-1.49,27.76-1.57,41.67,0,5.58-.59,11.2-.27,16.77.68,11.65.43,23.32,1.22,35,.69,10,1.26,20.1,2.16,30.12,1.31,14.58,3.17,29.09,5.35,43.57,3.17,21.13,7.42,42.06,12.55,62.8,1.71,6.91,3.61,13.77,5.57,20.62a22.23,22.23,0,0,1,1,4.18c-.35,1.65-1.22.8-1.84.29a24.42,24.42,0,0,1-3.58-3.53c-4.17-5.17-9.17-9.56-13.65-14.44q-16-17.46-31.11-35.76c-15.3-18.67-29.46-38.19-43-58.15C158.59,245.73,157.51,244.89,158,243.47Z"/><path class="cls-3" d="M411.88,247.32a3.69,3.69,0,0,1,.52-2c.38-.58.06-1.48.84-1.88,18.21-46.19,59.34-125.2,74.21-142.48a85.88,85.88,0,0,1,5.53,9.7,202,202,0,0,1,22,71.75Q524,265,474.29,331.7a203,203,0,0,1-68,58.08,15.38,15.38,0,0,1-1.54.63c-1.26-.61-1.2-1.8-1.23-2.9-.38-14.23-.88-28.46-.44-42.69.42-13.41.87-26.83,1.91-40.22,1.3-16.66,2.93-33.29,5.22-49.85A40.71,40.71,0,0,1,411.88,247.32Z"/><path class="cls-4" d="M225.67,103.34a9.44,9.44,0,0,0,.45-3.36c1-13.47,2.51-26.88,4.45-40.23,2.3-15.8,5.23-31.49,8.93-47a3.14,3.14,0,0,1,2.36-2.58A196.83,196.83,0,0,1,286.43.31c5.94-.58,12-.16,18-.18,6.63,0,13.26,0,20,0-1.58,7.74-3.19,15.29-4.65,22.87-3.26,16.95-5.58,34-7.28,51.2q-3,30.55-3.24,61.24c0,.79-.5,1.75.44,2.4l-.47,2.44c-3.27,17.1-7.79,33.92-11,51-4.21,22.47-7.72,45-10.22,67.77-.85,7.69-1.81,15.39-2.1,23.13a2.32,2.32,0,0,1-.83,2.13c-.63,0-.79-.53-.83-1-.29-2.78-1.66-5.18-2.84-7.6a661.54,661.54,0,0,1-29.81-72.25,652.48,652.48,0,0,1-24.85-92.85C226.21,108.23,226.24,105.75,225.67,103.34Z"/><path class="cls-5" d="M158,243.47l1.46,2.89c2.4,4.2,3.59,8.88,5.29,13.35,6.28,16.51,13,32.85,20.45,48.87a626.05,626.05,0,0,0,32.54,61.13c5.65,9.29,11.49,18.46,17.76,27.35.63.9,1.8,1.72,1.18,3.14a195.94,195.94,0,0,1-52.94-30,181.61,181.61,0,0,1-17-15.13c-.94-1-1.62-1.34-3-.54-27.09,15.4-56.29,24.38-87.12,28.25-10.73,1.35-21.48,2-32.28.86a29.72,29.72,0,0,1-10.84-2.78c-4.14-2.17-4.67-5-1.43-8.41s7.47-6,11.46-8.65c21-13.89,39.34-30.59,53.76-51.38a200.44,200.44,0,0,0,17.65-31,3.89,3.89,0,0,0,.11-3.36,196.19,196.19,0,0,1-13.87-78,208.07,208.07,0,0,1,6-44.08c.09-.37.22-.73.49-1.66.78,1.61,1.35,2.76,1.9,3.91a694.08,694.08,0,0,0,47.13,83.35C157,242.25,157.5,242.85,158,243.47Z"/><path class="cls-6" d="M489.09,493.42,515,465.75q16.54-17.69,33.08-35.38a2.55,2.55,0,0,1,2-1.13c14.46,0,28.92,0,43.92,0-3.75,3.94-7.18,7.56-10.62,11.16Q554.78,470.2,526.22,500c-1.19,1.24-.73,1.86.19,2.88q35.37,39.14,70.68,78.33c.52.58,1,1.19,1.54,1.83-.83.61-1.64.33-2.38.33-14.16,0-28.32,0-42.47.07a5.21,5.21,0,0,1-4.45-2.07Q520,547,490.68,512.79c-.36-.42-.74-.83-1.22-1.37-.63.81-.37,1.69-.37,2.48,0,22.24,0,44.47,0,66.71,0,2.14-.47,2.8-2.71,2.77-9.76-.13-19.52-.09-29.27,0-1.67,0-2.33-.26-2.32-2.17q.09-74.87,0-149.74c0-1.81.47-2.26,2.26-2.24,9.92.09,19.84.11,29.75,0,2,0,2.29.72,2.28,2.46q-.08,29.28,0,58.55Z"/><path class="cls-6" d="M283.68,583.33H268.57c-7,0-14.08-.07-21.12.05a2.65,2.65,0,0,1-2.94-2c-3.68-9.18-7.49-18.31-11.15-27.5a3,3,0,0,0-3.26-2.26q-27.72.12-55.43,0c-1.87,0-2.61.67-3.23,2.28-3.6,9.3-7.32,18.56-11,27.85-.37.95-.64,1.64-1.93,1.63-11.92-.06-23.84,0-35.76-.05-.13,0-.26-.12-.56-.28q3.29-7.67,6.59-15.35,29.47-68.23,58.92-136.47a2.72,2.72,0,0,1,3-2q12,.16,24,0a3,3,0,0,1,3.32,2.2q28.68,66.1,57.45,132.17,3.77,8.67,7.52,17.35A4.26,4.26,0,0,1,283.68,583.33Z"/><path class="cls-7" d="M284.7,284.3c1-2.73.5-5.63.86-8.44,1.11-8.73,1.69-17.52,2.83-26.26,1.1-8.49,2.13-17,3.49-25.45,1.42-8.85,2.78-17.71,4.4-26.52q5.22-28.36,12.4-56.29a6.43,6.43,0,0,1,.48-1c0,3.68.11,7.36,0,11-.27,8.07.47,16.11.58,24.18s.75,16,1.4,24.05c.82,10,1.7,19.94,2.9,29.87s2.58,20,4.13,29.93a678.88,678.88,0,0,0,14,67.4,507.2,507.2,0,0,0,18.89,58.42c1.2,3,3.94,5.16,6,7.7,3.43,4.29,7.49,8,10.75,12.48a157.47,157.47,0,0,1-25.4,6.06,203.46,203.46,0,0,1-37.61,2.85c-5.74-.11-11.47-.62-17.2-.94a7,7,0,0,1-2.48-.81c-.06-6.16-1-12.25-1.42-18.38q-.71-9.79-1.23-19.59c-.57-11.17-1-22.35-.79-33.51.21-12.6.22-25.22,1.19-37.81.41-5.41.61-10.83,1.08-16.24C284,286,283.91,285,284.7,284.3Z"/><path class="cls-8" d="M284.7,284.3c-.35,10.18-1.42,20.32-1.58,30.53,0,3.08-.41,6.2-.31,9.3.22,7-.84,14-.46,21,.42,7.82.23,15.64.49,23.45s.73,15.89,1.44,23.81c.55,6.08.75,12.21,1.78,18.25.14.83.15,1.64-1,1.84-5.34-.64-10.77-.8-15.86-2.85-5.23-12.93-10.1-26-14.38-39.27-.9-2.81-1.66-5.66-2.62-8.45a3.51,3.51,0,0,1-.21-2.78q-8.77-29.75-14.66-60.21c-1.93-10-3.76-20-5.05-30-1.16-9-2.59-18.05-3.71-27.1-.69-5.59-1-11.23-1.54-16.84-.89-9.42-1.59-18.84-2-28.3-.31-7.15-1-14.3-.84-21.47.11-5-.43-10-.51-15-.16-10.06.52-20.1.59-30.15,0-6.34.49-12.72.94-19.06q.27-3.81.41-7.62c1.61,4.26,1.94,8.79,2.82,13.21,3.36,16.94,7.46,33.69,12.15,50.3,3,10.73,6.28,21.4,9.91,32q8.59,25,18.9,49.33c4.59,10.8,9.63,21.38,14.64,32A10.19,10.19,0,0,1,284.7,284.3Z"/><path class="cls-6" d="M44.28,521.41c0-19.84,0-39.67.05-59.51,0-2-.53-2.48-2.5-2.46-13.2.09-26.4,0-39.59.09-1.79,0-2.26-.43-2.24-2.23.1-8.64.08-17.28,0-25.91,0-1.57.24-2.18,2-2.18q59.39.08,118.78,0c1.77,0,2.07.59,2.06,2.19-.07,8.64-.09,17.28,0,25.91,0,1.85-.53,2.23-2.28,2.22-13.12-.07-26.24,0-39.35-.11-2.42,0-2.81.71-2.81,2.93.07,39.35,0,78.71.11,118.06,0,2.42-.58,3-3,3-9.52-.16-19-.13-28.55,0-2.11,0-2.8-.41-2.79-2.69C44.33,560.93,44.28,541.17,44.28,521.41Z"/><path class="cls-6" d="M319.51,506.29c0-24.79,0-49.58-.05-74.38,0-2.23.61-2.74,2.77-2.71q14.39.18,28.79,0c2.13,0,2.78.45,2.77,2.71-.08,39.27,0,78.53-.12,117.8,0,2.44.6,3,3,3,19.27-.11,38.55,0,57.82-.11,2,0,2.5.54,2.48,2.52q-.17,13,0,25.91c0,1.85-.44,2.39-2.35,2.39q-46.3-.09-92.61,0c-2,0-2.53-.43-2.52-2.47C319.54,556,319.51,531.16,319.51,506.29Z"/><path class="cls-9" d="M252,359.16c2.22,6.89,4.38,13.8,6.69,20.66,3.11,9.2,6.45,18.31,10.25,27.26.32.75,1.25,1.62.26,2.58a179.15,179.15,0,0,1-31.86-8.87,3.1,3.1,0,0,1-.75-.59c-3.16-4.77-6.37-9.52-9.48-14.33q-10.78-16.67-20.55-33.95c-4.62-8.21-9.08-16.51-13.27-24.93-6.83-13.71-13.33-27.58-19.14-41.76C169,272.7,164,260.12,159.63,247.29c-.1-.3-.15-.62-.22-.93,2.51,2.58,4.19,5.77,6.21,8.7q16.26,23.56,34.17,45.88,10.1,12.53,20.74,24.6c8,9.09,16.14,18,24.68,26.63C247.5,354.48,249.49,357.1,252,359.16Z"/><path class="cls-10" d="M411.88,247.32c-.92,7-1.89,14-2.73,21-.62,5.2-1.08,10.41-1.58,15.62-.63,6.55-1.24,13.1-1.85,19.65-.23,2.45-.34,4.93-.42,7.37-.13,4.14-.48,8.27-.67,12.4-.77,16.25-1.16,32.51-.82,48.77.12,5.49.35,11,.42,16.48a7.8,7.8,0,0,0,.47,1.83,186.86,186.86,0,0,1-31.6,13.39,9.24,9.24,0,0,1-3.43.9c1.13-7.3,2.15-14.61,3.43-21.89,3.17-18,7.21-35.86,11.87-53.56,2.94-11.17,6.2-22.25,9.65-33.28,5-16.14,10.71-32.07,16.79-47.85A5.09,5.09,0,0,1,411.88,247.32Z"/><path class="cls-11" d="M413.25,243.42c-.22.66-.23,1.4-.84,1.88a4.19,4.19,0,0,1,.38-2.83Z"/><path class="cls-12" d="M220.81,522.85H206.89q-10.91,0-21.83,0c-.86,0-2.12.4-1.42-1.38q9-22.92,18-45.86c0-.07.11-.11.32-.32Z"/></g></g></svg>